   <svg width="600" height="600"  xmlns="http://www.w3.org/2000/svg">
   <g>
      <ellipse rx="60" ry="22" cx="210" cy="345" fill="#D3D3D3"/>
      <circle cx="210" cy="250" r="100" fill="#FFA500"/>
      <circle cx="180" cy="250" r="40" fill="white"/>
      <circle cx="240" cy="250" r="40" fill="white"/>
      <circle cx="190" cy="250" r="10" fill="black"/>
      <circle cx="250" cy="250" r="10" fill="black"/>0
      <circle cx="210" cy="285" r="15" fill="black"/>
      <ellipse transform="rotate(23 434 190)" ry="25" rx="65" cx="140" cy="400"  fill="#FFA500"/>      
      <ellipse ry="9" rx="20" cx="200" cy="325" fill="#DC143C"/>   
      <polygon points="120,210 120,160 200,170" fill="#FFA500"></polygon>
      <polygon points="200,160 255,160 230,120" fill="#FFA500"></polygon>
      <polygon points="125,200 125,165 155,169" fill="black"></polygon>
      <polygon points="212,150 250,160 230,128" fill="black"></polygon>
      <polygon points="28,240 45,270 80,245" fill="white"></polygon>

      <ellipse rx="60" ry="22" cx="460" cy="345" fill="#D3D3D3"/>
      <circle cx="460" cy="250" r="100" fill="#FFD700"/>
      <circle cx="430" cy="250" r="40" fill="white"/>
      <circle cx="490" cy="250" r="40" fill="white"/>
      <circle cx="420" cy="250" r="10" fill="black"/>
      <circle cx="480" cy="250" r="10" fill="black"/>
      <ellipse ry="18" rx="9" cx="455" cy="325" fill="#DC143C"/>   
      </g>
   </svg>